<?xml version="1.0" encoding="UTF-8" standalone="no"?>
<!DOCTYPE svg PUBLIC "-//W3C//DTD SVG 1.1//EN"
 "http://www.w3.org/Graphics/SVG/1.1/DTD/svg11.dtd">
<!-- Generated by graphviz version 14.1.1 (20251213.1925)
 -->
<!-- Title: InheritanceTree Pages: 1 -->
<svg width="976pt" height="3435pt"
 viewBox="0.00 0.00 976.00 3435.00" xmlns="http://www.w3.org/2000/svg" xmlns:xlink="http://www.w3.org/1999/xlink">
<g id="graph0" class="graph" transform="scale(1 1) rotate(0) translate(4 3430.5)">
<title>InheritanceTree</title>
<polygon fill="white" stroke="none" points="-4,4 -4,-3430.5 971.5,-3430.5 971.5,4 -4,4"/>
<text xml:space="preserve" text-anchor="middle" x="483.75" y="-7.2" font-family="Times New Roman,serif" font-size="14.00">simple_json &#45; Inheritance Hierarchy</text>
<!-- SIMPLE_JSON_CONSTANTS -->
<g id="node1" class="node">
<title>SIMPLE_JSON_CONSTANTS</title>
<path fill="none" stroke="black" d="M955.5,-276.5C955.5,-276.5 790.25,-276.5 790.25,-276.5 784.25,-276.5 778.25,-270.5 778.25,-264.5 778.25,-264.5 778.25,-252.5 778.25,-252.5 778.25,-246.5 784.25,-240.5 790.25,-240.5 790.25,-240.5 955.5,-240.5 955.5,-240.5 961.5,-240.5 967.5,-246.5 967.5,-252.5 967.5,-252.5 967.5,-264.5 967.5,-264.5 967.5,-270.5 961.5,-276.5 955.5,-276.5"/>
<text xml:space="preserve" text-anchor="middle" x="872.88" y="-253.45" font-family="Times New Roman,serif" font-size="14.00">SIMPLE_JSON_CONSTANTS</text>
</g>
<!-- JSON_DECIMAL -->
<g id="node2" class="node">
<title>JSON_DECIMAL</title>
<path fill="none" stroke="black" d="M202.75,-600.5C202.75,-600.5 109.5,-600.5 109.5,-600.5 103.5,-600.5 97.5,-594.5 97.5,-588.5 97.5,-588.5 97.5,-576.5 97.5,-576.5 97.5,-570.5 103.5,-564.5 109.5,-564.5 109.5,-564.5 202.75,-564.5 202.75,-564.5 208.75,-564.5 214.75,-570.5 214.75,-576.5 214.75,-576.5 214.75,-588.5 214.75,-588.5 214.75,-594.5 208.75,-600.5 202.75,-600.5"/>
<text xml:space="preserve" text-anchor="middle" x="156.12" y="-577.45" font-family="Times New Roman,serif" font-size="14.00">JSON_DECIMAL</text>
</g>
<!-- JSON_NUMBER -->
<g id="node3" class="node">
<title>JSON_NUMBER</title>
<path fill="none" stroke="black" d="M590,-600.5C590,-600.5 500.5,-600.5 500.5,-600.5 494.5,-600.5 488.5,-594.5 488.5,-588.5 488.5,-588.5 488.5,-576.5 488.5,-576.5 488.5,-570.5 494.5,-564.5 500.5,-564.5 500.5,-564.5 590,-564.5 590,-564.5 596,-564.5 602,-570.5 602,-576.5 602,-576.5 602,-588.5 602,-588.5 602,-594.5 596,-600.5 590,-600.5"/>
<text xml:space="preserve" text-anchor="middle" x="545.25" y="-577.45" font-family="Times New Roman,serif" font-size="14.00">JSON_NUMBER</text>
</g>
<!-- JSON_DECIMAL&#45;&gt;JSON_NUMBER -->
<g id="edge1" class="edge">
<title>JSON_DECIMAL&#45;&gt;JSON_NUMBER</title>
<path fill="none" stroke="black" d="M215.22,-582.5C215.22,-582.5 476.62,-582.5 476.62,-582.5"/>
<polygon fill="none" stroke="black" points="476.62,-586 486.62,-582.5 476.62,-579 476.62,-586"/>
</g>
<!-- SIMPLE_JSON -->
<g id="node4" class="node">
<title>SIMPLE_JSON</title>
<path fill="none" stroke="black" d="M585.12,-420.5C585.12,-420.5 505.38,-420.5 505.38,-420.5 499.38,-420.5 493.38,-414.5 493.38,-408.5 493.38,-408.5 493.38,-396.5 493.38,-396.5 493.38,-390.5 499.38,-384.5 505.38,-384.5 505.38,-384.5 585.12,-384.5 585.12,-384.5 591.12,-384.5 597.12,-390.5 597.12,-396.5 597.12,-396.5 597.12,-408.5 597.12,-408.5 597.12,-414.5 591.12,-420.5 585.12,-420.5"/>
<text xml:space="preserve" text-anchor="middle" x="545.25" y="-397.45" font-family="Times New Roman,serif" font-size="14.00">SIMPLE_JSON</text>
</g>
<!-- SIMPLE_JSON&#45;&gt;SIMPLE_JSON_CONSTANTS -->
<g id="edge2" class="edge">
<title>SIMPLE_JSON&#45;&gt;SIMPLE_JSON_CONSTANTS</title>
<path fill="none" stroke="black" d="M597.47,-408.5C689.86,-408.5 872.5,-408.5 872.5,-408.5 872.5,-408.5 872.5,-288.41 872.5,-288.41"/>
<polygon fill="none" stroke="black" points="876,-288.41 872.5,-278.41 869,-288.41 876,-288.41"/>
</g>
<!-- NONE -->
<g id="node5" class="node">
<title>NONE</title>
<path fill="none" stroke="black" d="M887.88,-204.5C887.88,-204.5 857.88,-204.5 857.88,-204.5 851.88,-204.5 845.88,-198.5 845.88,-192.5 845.88,-192.5 845.88,-180.5 845.88,-180.5 845.88,-174.5 851.88,-168.5 857.88,-168.5 857.88,-168.5 887.88,-168.5 887.88,-168.5 893.88,-168.5 899.88,-174.5 899.88,-180.5 899.88,-180.5 899.88,-192.5 899.88,-192.5 899.88,-198.5 893.88,-204.5 887.88,-204.5"/>
<text xml:space="preserve" text-anchor="middle" x="872.88" y="-181.45" font-family="Times New Roman,serif" font-size="14.00">NONE</text>
</g>
<!-- SIMPLE_JSON&#45;&gt;NONE -->
<g id="edge3" class="edge">
<title>SIMPLE_JSON&#45;&gt;NONE</title>
<path fill="none" stroke="black" d="M597.47,-396.5C660.03,-396.5 756.5,-396.5 756.5,-396.5 756.5,-396.5 756.5,-200 756.5,-200 756.5,-200 834.08,-200 834.08,-200"/>
<polygon fill="none" stroke="black" points="834.08,-203.5 844.08,-200 834.08,-196.5 834.08,-203.5"/>
</g>
<!-- SIMPLE_JSON_ARRAY -->
<g id="node6" class="node">
<title>SIMPLE_JSON_ARRAY</title>
<path fill="none" stroke="black" d="M222.62,-762.5C222.62,-762.5 89.62,-762.5 89.62,-762.5 83.62,-762.5 77.62,-756.5 77.62,-750.5 77.62,-750.5 77.62,-738.5 77.62,-738.5 77.62,-732.5 83.62,-726.5 89.62,-726.5 89.62,-726.5 222.62,-726.5 222.62,-726.5 228.62,-726.5 234.62,-732.5 234.62,-738.5 234.62,-738.5 234.62,-750.5 234.62,-750.5 234.62,-756.5 228.62,-762.5 222.62,-762.5"/>
<text xml:space="preserve" text-anchor="middle" x="156.12" y="-739.45" font-family="Times New Roman,serif" font-size="14.00">SIMPLE_JSON_ARRAY</text>
</g>
<!-- SIMPLE_JSON_VALUE -->
<g id="node7" class="node">
<title>SIMPLE_JSON_VALUE</title>
<path fill="none" stroke="black" d="M610.62,-708.5C610.62,-708.5 479.88,-708.5 479.88,-708.5 473.88,-708.5 467.88,-702.5 467.88,-696.5 467.88,-696.5 467.88,-684.5 467.88,-684.5 467.88,-678.5 473.88,-672.5 479.88,-672.5 479.88,-672.5 610.62,-672.5 610.62,-672.5 616.62,-672.5 622.62,-678.5 622.62,-684.5 622.62,-684.5 622.62,-696.5 622.62,-696.5 622.62,-702.5 616.62,-708.5 610.62,-708.5"/>
<text xml:space="preserve" text-anchor="middle" x="545.25" y="-685.45" font-family="Times New Roman,serif" font-size="14.00">SIMPLE_JSON_VALUE</text>
</g>
<!-- SIMPLE_JSON_ARRAY&#45;&gt;SIMPLE_JSON_VALUE -->
<g id="edge4" class="edge">
<title>SIMPLE_JSON_ARRAY&#45;&gt;SIMPLE_JSON_VALUE</title>
<path fill="none" stroke="black" d="M235.03,-744.5C335.02,-744.5 494.5,-744.5 494.5,-744.5 494.5,-744.5 494.5,-720.3 494.5,-720.3"/>
<polygon fill="none" stroke="black" points="498,-720.3 494.5,-710.3 491,-720.3 498,-720.3"/>
</g>
<!-- SIMPLE_JSON_ERROR -->
<g id="node8" class="node">
<title>SIMPLE_JSON_ERROR</title>
<path fill="none" stroke="black" d="M221.88,-834.5C221.88,-834.5 90.38,-834.5 90.38,-834.5 84.38,-834.5 78.38,-828.5 78.38,-822.5 78.38,-822.5 78.38,-810.5 78.38,-810.5 78.38,-804.5 84.38,-798.5 90.38,-798.5 90.38,-798.5 221.88,-798.5 221.88,-798.5 227.88,-798.5 233.88,-804.5 233.88,-810.5 233.88,-810.5 233.88,-822.5 233.88,-822.5 233.88,-828.5 227.88,-834.5 221.88,-834.5"/>
<text xml:space="preserve" text-anchor="middle" x="156.12" y="-811.45" font-family="Times New Roman,serif" font-size="14.00">SIMPLE_JSON_ERROR</text>
</g>
<!-- SIMPLE_JSON_OBJECT -->
<g id="node9" class="node">
<title>SIMPLE_JSON_OBJECT</title>
<path fill="none" stroke="black" d="M224.12,-690.5C224.12,-690.5 88.12,-690.5 88.12,-690.5 82.12,-690.5 76.12,-684.5 76.12,-678.5 76.12,-678.5 76.12,-666.5 76.12,-666.5 76.12,-660.5 82.12,-654.5 88.12,-654.5 88.12,-654.5 224.12,-654.5 224.12,-654.5 230.12,-654.5 236.12,-660.5 236.12,-666.5 236.12,-666.5 236.12,-678.5 236.12,-678.5 236.12,-684.5 230.12,-690.5 224.12,-690.5"/>
<text xml:space="preserve" text-anchor="middle" x="156.12" y="-667.45" font-family="Times New Roman,serif" font-size="14.00">SIMPLE_JSON_OBJECT</text>
</g>
<!-- SIMPLE_JSON_OBJECT&#45;&gt;SIMPLE_JSON_VALUE -->
<g id="edge5" class="edge">
<title>SIMPLE_JSON_OBJECT&#45;&gt;SIMPLE_JSON_VALUE</title>
<path fill="none" stroke="black" d="M236.28,-681.5C236.28,-681.5 456.01,-681.5 456.01,-681.5"/>
<polygon fill="none" stroke="black" points="456.01,-685 466.01,-681.5 456.01,-678 456.01,-685"/>
</g>
<!-- SIMPLE_JSON_SERIALIZABLE -->
<g id="node10" class="node">
<title>SIMPLE_JSON_SERIALIZABLE</title>
<path fill="none" stroke="black" d="M247,-906.5C247,-906.5 65.25,-906.5 65.25,-906.5 59.25,-906.5 53.25,-900.5 53.25,-894.5 53.25,-894.5 53.25,-882.5 53.25,-882.5 53.25,-876.5 59.25,-870.5 65.25,-870.5 65.25,-870.5 247,-870.5 247,-870.5 253,-870.5 259,-876.5 259,-882.5 259,-882.5 259,-894.5 259,-894.5 259,-900.5 253,-906.5 247,-906.5"/>
<text xml:space="preserve" text-anchor="middle" x="156.12" y="-883.45" font-family="Times New Roman,serif" font-size="14.00">SIMPLE_JSON_SERIALIZABLE</text>
</g>
<!-- SIMPLE_JSON_MERGE_PATCH -->
<g id="node11" class="node">
<title>SIMPLE_JSON_MERGE_PATCH</title>
<path fill="none" stroke="black" d="M247.75,-1050.5C247.75,-1050.5 64.5,-1050.5 64.5,-1050.5 58.5,-1050.5 52.5,-1044.5 52.5,-1038.5 52.5,-1038.5 52.5,-1026.5 52.5,-1026.5 52.5,-1020.5 58.5,-1014.5 64.5,-1014.5 64.5,-1014.5 247.75,-1014.5 247.75,-1014.5 253.75,-1014.5 259.75,-1020.5 259.75,-1026.5 259.75,-1026.5 259.75,-1038.5 259.75,-1038.5 259.75,-1044.5 253.75,-1050.5 247.75,-1050.5"/>
<text xml:space="preserve" text-anchor="middle" x="156.12" y="-1027.45" font-family="Times New Roman,serif" font-size="14.00">SIMPLE_JSON_MERGE_PATCH</text>
</g>
<!-- ANY -->
<g id="node12" class="node">
<title>ANY</title>
<path fill="none" stroke="black" d="M560.25,-1014.5C560.25,-1014.5 530.25,-1014.5 530.25,-1014.5 524.25,-1014.5 518.25,-1008.5 518.25,-1002.5 518.25,-1002.5 518.25,-990.5 518.25,-990.5 518.25,-984.5 524.25,-978.5 530.25,-978.5 530.25,-978.5 560.25,-978.5 560.25,-978.5 566.25,-978.5 572.25,-984.5 572.25,-990.5 572.25,-990.5 572.25,-1002.5 572.25,-1002.5 572.25,-1008.5 566.25,-1014.5 560.25,-1014.5"/>
<text xml:space="preserve" text-anchor="middle" x="545.25" y="-991.45" font-family="Times New Roman,serif" font-size="14.00">ANY</text>
</g>
<!-- SIMPLE_JSON_MERGE_PATCH&#45;&gt;ANY -->
<g id="edge6" class="edge">
<title>SIMPLE_JSON_MERGE_PATCH&#45;&gt;ANY</title>
<path fill="none" stroke="black" d="M260.21,-1032.5C375.56,-1032.5 545.5,-1032.5 545.5,-1032.5 545.5,-1032.5 545.5,-1026.44 545.5,-1026.44"/>
<polygon fill="none" stroke="black" points="549,-1026.44 545.5,-1016.44 542,-1026.44 549,-1026.44"/>
</g>
<!-- SIMPLE_JSON_MERGE_PATCH_RESULT -->
<g id="node13" class="node">
<title>SIMPLE_JSON_MERGE_PATCH_RESULT</title>
<path fill="none" stroke="black" d="M276.25,-978.5C276.25,-978.5 36,-978.5 36,-978.5 30,-978.5 24,-972.5 24,-966.5 24,-966.5 24,-954.5 24,-954.5 24,-948.5 30,-942.5 36,-942.5 36,-942.5 276.25,-942.5 276.25,-942.5 282.25,-942.5 288.25,-948.5 288.25,-954.5 288.25,-954.5 288.25,-966.5 288.25,-966.5 288.25,-972.5 282.25,-978.5 276.25,-978.5"/>
<text xml:space="preserve" text-anchor="middle" x="156.12" y="-955.45" font-family="Times New Roman,serif" font-size="14.00">SIMPLE_JSON_MERGE_PATCH_RESULT</text>
</g>
<!-- SIMPLE_JSON_MERGE_PATCH_RESULT&#45;&gt;ANY -->
<g id="edge7" class="edge">
<title>SIMPLE_JSON_MERGE_PATCH_RESULT&#45;&gt;ANY</title>
<path fill="none" stroke="black" d="M274.5,-978.92C274.5,-987.78 274.5,-996.5 274.5,-996.5 274.5,-996.5 506.29,-996.5 506.29,-996.5"/>
<polygon fill="none" stroke="black" points="506.29,-1000 516.29,-996.5 506.29,-993 506.29,-1000"/>
</g>
<!-- SIMPLE_JSON_PATCH -->
<g id="node14" class="node">
<title>SIMPLE_JSON_PATCH</title>
<path fill="none" stroke="black" d="M220.38,-1122.5C220.38,-1122.5 91.88,-1122.5 91.88,-1122.5 85.88,-1122.5 79.88,-1116.5 79.88,-1110.5 79.88,-1110.5 79.88,-1098.5 79.88,-1098.5 79.88,-1092.5 85.88,-1086.5 91.88,-1086.5 91.88,-1086.5 220.38,-1086.5 220.38,-1086.5 226.38,-1086.5 232.38,-1092.5 232.38,-1098.5 232.38,-1098.5 232.38,-1110.5 232.38,-1110.5 232.38,-1116.5 226.38,-1122.5 220.38,-1122.5"/>
<text xml:space="preserve" text-anchor="middle" x="156.12" y="-1099.45" font-family="Times New Roman,serif" font-size="14.00">SIMPLE_JSON_PATCH</text>
</g>
<!-- SIMPLE_JSON_PATCH_ADD -->
<g id="node15" class="node">
<title>SIMPLE_JSON_PATCH_ADD</title>
<path fill="none" stroke="black" d="M238.38,-528.5C238.38,-528.5 73.88,-528.5 73.88,-528.5 67.88,-528.5 61.88,-522.5 61.88,-516.5 61.88,-516.5 61.88,-504.5 61.88,-504.5 61.88,-498.5 67.88,-492.5 73.88,-492.5 73.88,-492.5 238.38,-492.5 238.38,-492.5 244.38,-492.5 250.38,-498.5 250.38,-504.5 250.38,-504.5 250.38,-516.5 250.38,-516.5 250.38,-522.5 244.38,-528.5 238.38,-528.5"/>
<text xml:space="preserve" text-anchor="middle" x="156.12" y="-505.45" font-family="Times New Roman,serif" font-size="14.00">SIMPLE_JSON_PATCH_ADD</text>
</g>
<!-- SIMPLE_JSON_PATCH_OPERATION -->
<g id="node16" class="node">
<title>SIMPLE_JSON_PATCH_OPERATION</title>
<path fill="none" stroke="black" d="M650.38,-348.5C650.38,-348.5 440.12,-348.5 440.12,-348.5 434.12,-348.5 428.12,-342.5 428.12,-336.5 428.12,-336.5 428.12,-324.5 428.12,-324.5 428.12,-318.5 434.12,-312.5 440.12,-312.5 440.12,-312.5 650.38,-312.5 650.38,-312.5 656.38,-312.5 662.38,-318.5 662.38,-324.5 662.38,-324.5 662.38,-336.5 662.38,-336.5 662.38,-342.5 656.38,-348.5 650.38,-348.5"/>
<text xml:space="preserve" text-anchor="middle" x="545.25" y="-325.45" font-family="Times New Roman,serif" font-size="14.00">SIMPLE_JSON_PATCH_OPERATION</text>
</g>
<!-- SIMPLE_JSON_PATCH_ADD&#45;&gt;SIMPLE_JSON_PATCH_OPERATION -->
<g id="edge8" class="edge">
<title>SIMPLE_JSON_PATCH_ADD&#45;&gt;SIMPLE_JSON_PATCH_OPERATION</title>
<path fill="none" stroke="black" d="M250.66,-510.5C339.04,-510.5 457.5,-510.5 457.5,-510.5 457.5,-510.5 457.5,-360.26 457.5,-360.26"/>
<polygon fill="none" stroke="black" points="461,-360.26 457.5,-350.26 454,-360.26 461,-360.26"/>
</g>
<!-- SIMPLE_JSON_PATCH_OPERATION&#45;&gt;SIMPLE_JSON_CONSTANTS -->
<g id="edge11" class="edge">
<title>SIMPLE_JSON_PATCH_OPERATION&#45;&gt;SIMPLE_JSON_CONSTANTS</title>
<path fill="none" stroke="black" d="M645.5,-312.28C645.5,-293.67 645.5,-267.5 645.5,-267.5 645.5,-267.5 766.25,-267.5 766.25,-267.5"/>
<polygon fill="none" stroke="black" points="766.25,-271 776.25,-267.5 766.25,-264 766.25,-271"/>
</g>
<!-- SIMPLE_JSON_PATCH_OPERATION&#45;&gt;NONE -->
<g id="edge12" class="edge">
<title>SIMPLE_JSON_PATCH_OPERATION&#45;&gt;NONE</title>
<path fill="none" stroke="black" d="M662.76,-330.5C701.8,-330.5 735.5,-330.5 735.5,-330.5 735.5,-330.5 735.5,-195.5 735.5,-195.5 735.5,-195.5 833.89,-195.5 833.89,-195.5"/>
<polygon fill="none" stroke="black" points="833.89,-199 843.89,-195.5 833.89,-192 833.89,-199"/>
</g>
<!-- SIMPLE_JSON_PATCH_COPY -->
<g id="node17" class="node">
<title>SIMPLE_JSON_PATCH_COPY</title>
<path fill="none" stroke="black" d="M241.75,-456.5C241.75,-456.5 70.5,-456.5 70.5,-456.5 64.5,-456.5 58.5,-450.5 58.5,-444.5 58.5,-444.5 58.5,-432.5 58.5,-432.5 58.5,-426.5 64.5,-420.5 70.5,-420.5 70.5,-420.5 241.75,-420.5 241.75,-420.5 247.75,-420.5 253.75,-426.5 253.75,-432.5 253.75,-432.5 253.75,-444.5 253.75,-444.5 253.75,-450.5 247.75,-456.5 241.75,-456.5"/>
<text xml:space="preserve" text-anchor="middle" x="156.12" y="-433.45" font-family="Times New Roman,serif" font-size="14.00">SIMPLE_JSON_PATCH_COPY</text>
</g>
<!-- SIMPLE_JSON_PATCH_COPY&#45;&gt;SIMPLE_JSON_PATCH_OPERATION -->
<g id="edge9" class="edge">
<title>SIMPLE_JSON_PATCH_COPY&#45;&gt;SIMPLE_JSON_PATCH_OPERATION</title>
<path fill="none" stroke="black" d="M253.96,-438.5C338.61,-438.5 447.5,-438.5 447.5,-438.5 447.5,-438.5 447.5,-360.33 447.5,-360.33"/>
<polygon fill="none" stroke="black" points="451,-360.33 447.5,-350.33 444,-360.33 451,-360.33"/>
</g>
<!-- SIMPLE_JSON_PATCH_MOVE -->
<g id="node18" class="node">
<title>SIMPLE_JSON_PATCH_MOVE</title>
<path fill="none" stroke="black" d="M244,-384.5C244,-384.5 68.25,-384.5 68.25,-384.5 62.25,-384.5 56.25,-378.5 56.25,-372.5 56.25,-372.5 56.25,-360.5 56.25,-360.5 56.25,-354.5 62.25,-348.5 68.25,-348.5 68.25,-348.5 244,-348.5 244,-348.5 250,-348.5 256,-354.5 256,-360.5 256,-360.5 256,-372.5 256,-372.5 256,-378.5 250,-384.5 244,-384.5"/>
<text xml:space="preserve" text-anchor="middle" x="156.12" y="-361.45" font-family="Times New Roman,serif" font-size="14.00">SIMPLE_JSON_PATCH_MOVE</text>
</g>
<!-- SIMPLE_JSON_PATCH_MOVE&#45;&gt;SIMPLE_JSON_PATCH_OPERATION -->
<g id="edge10" class="edge">
<title>SIMPLE_JSON_PATCH_MOVE&#45;&gt;SIMPLE_JSON_PATCH_OPERATION</title>
<path fill="none" stroke="black" d="M256.47,-366.5C337.64,-366.5 438.5,-366.5 438.5,-366.5 438.5,-366.5 438.5,-360.44 438.5,-360.44"/>
<polygon fill="none" stroke="black" points="442,-360.44 438.5,-350.44 435,-360.44 442,-360.44"/>
</g>
<!-- SIMPLE_JSON_PATCH_REMOVE -->
<g id="node19" class="node">
<title>SIMPLE_JSON_PATCH_REMOVE</title>
<path fill="none" stroke="black" d="M252.62,-312.5C252.62,-312.5 59.62,-312.5 59.62,-312.5 53.62,-312.5 47.62,-306.5 47.62,-300.5 47.62,-300.5 47.62,-288.5 47.62,-288.5 47.62,-282.5 53.62,-276.5 59.62,-276.5 59.62,-276.5 252.62,-276.5 252.62,-276.5 258.62,-276.5 264.62,-282.5 264.62,-288.5 264.62,-288.5 264.62,-300.5 264.62,-300.5 264.62,-306.5 258.62,-312.5 252.62,-312.5"/>
<text xml:space="preserve" text-anchor="middle" x="156.12" y="-289.45" font-family="Times New Roman,serif" font-size="14.00">SIMPLE_JSON_PATCH_REMOVE</text>
</g>
<!-- SIMPLE_JSON_PATCH_REMOVE&#45;&gt;SIMPLE_JSON_PATCH_OPERATION -->
<g id="edge13" class="edge">
<title>SIMPLE_JSON_PATCH_REMOVE&#45;&gt;SIMPLE_JSON_PATCH_OPERATION</title>
<path fill="none" stroke="black" d="M264.9,-294.5C348.76,-294.5 450.5,-294.5 450.5,-294.5 450.5,-294.5 450.5,-300.56 450.5,-300.56"/>
<polygon fill="none" stroke="black" points="447,-300.56 450.5,-310.56 454,-300.56 447,-300.56"/>
</g>
<!-- SIMPLE_JSON_PATCH_REPLACE -->
<g id="node20" class="node">
<title>SIMPLE_JSON_PATCH_REPLACE</title>
<path fill="none" stroke="black" d="M253.75,-240.5C253.75,-240.5 58.5,-240.5 58.5,-240.5 52.5,-240.5 46.5,-234.5 46.5,-228.5 46.5,-228.5 46.5,-216.5 46.5,-216.5 46.5,-210.5 52.5,-204.5 58.5,-204.5 58.5,-204.5 253.75,-204.5 253.75,-204.5 259.75,-204.5 265.75,-210.5 265.75,-216.5 265.75,-216.5 265.75,-228.5 265.75,-228.5 265.75,-234.5 259.75,-240.5 253.75,-240.5"/>
<text xml:space="preserve" text-anchor="middle" x="156.12" y="-217.45" font-family="Times New Roman,serif" font-size="14.00">SIMPLE_JSON_PATCH_REPLACE</text>
</g>
<!-- SIMPLE_JSON_PATCH_REPLACE&#45;&gt;SIMPLE_JSON_PATCH_OPERATION -->
<g id="edge14" class="edge">
<title>SIMPLE_JSON_PATCH_REPLACE&#45;&gt;SIMPLE_JSON_PATCH_OPERATION</title>
<path fill="none" stroke="black" d="M266.09,-222.5C345.75,-222.5 439.5,-222.5 439.5,-222.5 439.5,-222.5 439.5,-300.67 439.5,-300.67"/>
<polygon fill="none" stroke="black" points="436,-300.67 439.5,-310.67 443,-300.67 436,-300.67"/>
</g>
<!-- SIMPLE_JSON_PATCH_RESULT -->
<g id="node21" class="node">
<title>SIMPLE_JSON_PATCH_RESULT</title>
<path fill="none" stroke="black" d="M248.88,-1194.5C248.88,-1194.5 63.38,-1194.5 63.38,-1194.5 57.38,-1194.5 51.38,-1188.5 51.38,-1182.5 51.38,-1182.5 51.38,-1170.5 51.38,-1170.5 51.38,-1164.5 57.38,-1158.5 63.38,-1158.5 63.38,-1158.5 248.88,-1158.5 248.88,-1158.5 254.88,-1158.5 260.88,-1164.5 260.88,-1170.5 260.88,-1170.5 260.88,-1182.5 260.88,-1182.5 260.88,-1188.5 254.88,-1194.5 248.88,-1194.5"/>
<text xml:space="preserve" text-anchor="middle" x="156.12" y="-1171.45" font-family="Times New Roman,serif" font-size="14.00">SIMPLE_JSON_PATCH_RESULT</text>
</g>
<!-- SIMPLE_JSON_PATCH_TEST -->
<g id="node22" class="node">
<title>SIMPLE_JSON_PATCH_TEST</title>
<path fill="none" stroke="black" d="M239.88,-168.5C239.88,-168.5 72.38,-168.5 72.38,-168.5 66.38,-168.5 60.38,-162.5 60.38,-156.5 60.38,-156.5 60.38,-144.5 60.38,-144.5 60.38,-138.5 66.38,-132.5 72.38,-132.5 72.38,-132.5 239.88,-132.5 239.88,-132.5 245.88,-132.5 251.88,-138.5 251.88,-144.5 251.88,-144.5 251.88,-156.5 251.88,-156.5 251.88,-162.5 245.88,-168.5 239.88,-168.5"/>
<text xml:space="preserve" text-anchor="middle" x="156.12" y="-145.45" font-family="Times New Roman,serif" font-size="14.00">SIMPLE_JSON_PATCH_TEST</text>
</g>
<!-- SIMPLE_JSON_PATCH_TEST&#45;&gt;SIMPLE_JSON_PATCH_OPERATION -->
<g id="edge15" class="edge">
<title>SIMPLE_JSON_PATCH_TEST&#45;&gt;SIMPLE_JSON_PATCH_OPERATION</title>
<path fill="none" stroke="black" d="M252.27,-150.5C277.85,-150.5 298.5,-150.5 298.5,-150.5 298.5,-150.5 298.5,-330.5 298.5,-330.5 298.5,-330.5 416.14,-330.5 416.14,-330.5"/>
<polygon fill="none" stroke="black" points="416.14,-334 426.14,-330.5 416.14,-327 416.14,-334"/>
</g>
<!-- SIMPLE_JSON_POINTER -->
<g id="node23" class="node">
<title>SIMPLE_JSON_POINTER</title>
<path fill="none" stroke="black" d="M617,-276.5C617,-276.5 473.5,-276.5 473.5,-276.5 467.5,-276.5 461.5,-270.5 461.5,-264.5 461.5,-264.5 461.5,-252.5 461.5,-252.5 461.5,-246.5 467.5,-240.5 473.5,-240.5 473.5,-240.5 617,-240.5 617,-240.5 623,-240.5 629,-246.5 629,-252.5 629,-252.5 629,-264.5 629,-264.5 629,-270.5 623,-276.5 617,-276.5"/>
<text xml:space="preserve" text-anchor="middle" x="545.25" y="-253.45" font-family="Times New Roman,serif" font-size="14.00">SIMPLE_JSON_POINTER</text>
</g>
<!-- SIMPLE_JSON_POINTER&#45;&gt;SIMPLE_JSON_CONSTANTS -->
<g id="edge16" class="edge">
<title>SIMPLE_JSON_POINTER&#45;&gt;SIMPLE_JSON_CONSTANTS</title>
<path fill="none" stroke="black" d="M629.2,-258.5C629.2,-258.5 766.35,-258.5 766.35,-258.5"/>
<polygon fill="none" stroke="black" points="766.35,-262 776.35,-258.5 766.35,-255 766.35,-262"/>
</g>
<!-- SIMPLE_JSON_POINTER&#45;&gt;NONE -->
<g id="edge17" class="edge">
<title>SIMPLE_JSON_POINTER&#45;&gt;NONE</title>
<path fill="none" stroke="black" d="M629.38,-249.5C671.44,-249.5 713.5,-249.5 713.5,-249.5 713.5,-249.5 713.5,-191 713.5,-191 713.5,-191 833.96,-191 833.96,-191"/>
<polygon fill="none" stroke="black" points="833.96,-194.5 843.96,-191 833.96,-187.5 833.96,-194.5"/>
</g>
<!-- SIMPLE_JSON_SCHEMA -->
<g id="node24" class="node">
<title>SIMPLE_JSON_SCHEMA</title>
<path fill="none" stroke="black" d="M227.88,-1266.5C227.88,-1266.5 84.38,-1266.5 84.38,-1266.5 78.38,-1266.5 72.38,-1260.5 72.38,-1254.5 72.38,-1254.5 72.38,-1242.5 72.38,-1242.5 72.38,-1236.5 78.38,-1230.5 84.38,-1230.5 84.38,-1230.5 227.88,-1230.5 227.88,-1230.5 233.88,-1230.5 239.88,-1236.5 239.88,-1242.5 239.88,-1242.5 239.88,-1254.5 239.88,-1254.5 239.88,-1260.5 233.88,-1266.5 227.88,-1266.5"/>
<text xml:space="preserve" text-anchor="middle" x="156.12" y="-1243.45" font-family="Times New Roman,serif" font-size="14.00">SIMPLE_JSON_SCHEMA</text>
</g>
<!-- SIMPLE_JSON_SCHEMA_VALIDATION_ERROR -->
<g id="node25" class="node">
<title>SIMPLE_JSON_SCHEMA_VALIDATION_ERROR</title>
<path fill="none" stroke="black" d="M297.62,-1338.5C297.62,-1338.5 14.62,-1338.5 14.62,-1338.5 8.62,-1338.5 2.62,-1332.5 2.62,-1326.5 2.62,-1326.5 2.62,-1314.5 2.62,-1314.5 2.62,-1308.5 8.62,-1302.5 14.62,-1302.5 14.62,-1302.5 297.62,-1302.5 297.62,-1302.5 303.62,-1302.5 309.62,-1308.5 309.62,-1314.5 309.62,-1314.5 309.62,-1326.5 309.62,-1326.5 309.62,-1332.5 303.62,-1338.5 297.62,-1338.5"/>
<text xml:space="preserve" text-anchor="middle" x="156.12" y="-1315.45" font-family="Times New Roman,serif" font-size="14.00">SIMPLE_JSON_SCHEMA_VALIDATION_ERROR</text>
</g>
<!-- SIMPLE_JSON_SCHEMA_VALIDATION_RESULT -->
<g id="node26" class="node">
<title>SIMPLE_JSON_SCHEMA_VALIDATION_RESULT</title>
<path fill="none" stroke="black" d="M300.25,-1410.5C300.25,-1410.5 12,-1410.5 12,-1410.5 6,-1410.5 0,-1404.5 0,-1398.5 0,-1398.5 0,-1386.5 0,-1386.5 0,-1380.5 6,-1374.5 12,-1374.5 12,-1374.5 300.25,-1374.5 300.25,-1374.5 306.25,-1374.5 312.25,-1380.5 312.25,-1386.5 312.25,-1386.5 312.25,-1398.5 312.25,-1398.5 312.25,-1404.5 306.25,-1410.5 300.25,-1410.5"/>
<text xml:space="preserve" text-anchor="middle" x="156.12" y="-1387.45" font-family="Times New Roman,serif" font-size="14.00">SIMPLE_JSON_SCHEMA_VALIDATION_RESULT</text>
</g>
<!-- SIMPLE_JSON_SCHEMA_VALIDATOR -->
<g id="node27" class="node">
<title>SIMPLE_JSON_SCHEMA_VALIDATOR</title>
<path fill="none" stroke="black" d="M658.25,-204.5C658.25,-204.5 432.25,-204.5 432.25,-204.5 426.25,-204.5 420.25,-198.5 420.25,-192.5 420.25,-192.5 420.25,-180.5 420.25,-180.5 420.25,-174.5 426.25,-168.5 432.25,-168.5 432.25,-168.5 658.25,-168.5 658.25,-168.5 664.25,-168.5 670.25,-174.5 670.25,-180.5 670.25,-180.5 670.25,-192.5 670.25,-192.5 670.25,-198.5 664.25,-204.5 658.25,-204.5"/>
<text xml:space="preserve" text-anchor="middle" x="545.25" y="-181.45" font-family="Times New Roman,serif" font-size="14.00">SIMPLE_JSON_SCHEMA_VALIDATOR</text>
</g>
<!-- SIMPLE_JSON_SCHEMA_VALIDATOR&#45;&gt;SIMPLE_JSON_CONSTANTS -->
<g id="edge18" class="edge">
<title>SIMPLE_JSON_SCHEMA_VALIDATOR&#45;&gt;SIMPLE_JSON_CONSTANTS</title>
<path fill="none" stroke="black" d="M670.44,-186.5C730.04,-186.5 788.5,-186.5 788.5,-186.5 788.5,-186.5 788.5,-228.82 788.5,-228.82"/>
<polygon fill="none" stroke="black" points="785,-228.82 788.5,-238.82 792,-228.82 785,-228.82"/>
</g>
<!-- SIMPLE_JSON_SCHEMA_VALIDATOR&#45;&gt;NONE -->
<g id="edge19" class="edge">
<title>SIMPLE_JSON_SCHEMA_VALIDATOR&#45;&gt;NONE</title>
<path fill="none" stroke="black" d="M670.51,-182C670.51,-182 834.04,-182 834.04,-182"/>
<polygon fill="none" stroke="black" points="834.04,-185.5 844.04,-182 834.04,-178.5 834.04,-185.5"/>
</g>
<!-- SIMPLE_JSON_SERIALIZER -->
<g id="node28" class="node">
<title>SIMPLE_JSON_SERIALIZER</title>
<path fill="none" stroke="black" d="M238,-1482.5C238,-1482.5 74.25,-1482.5 74.25,-1482.5 68.25,-1482.5 62.25,-1476.5 62.25,-1470.5 62.25,-1470.5 62.25,-1458.5 62.25,-1458.5 62.25,-1452.5 68.25,-1446.5 74.25,-1446.5 74.25,-1446.5 238,-1446.5 238,-1446.5 244,-1446.5 250,-1452.5 250,-1458.5 250,-1458.5 250,-1470.5 250,-1470.5 250,-1476.5 244,-1482.5 238,-1482.5"/>
<text xml:space="preserve" text-anchor="middle" x="156.12" y="-1459.45" font-family="Times New Roman,serif" font-size="14.00">SIMPLE_JSON_SERIALIZER</text>
</g>
<!-- SIMPLE_JSON_BUILDER -->
<g id="node29" class="node">
<title>SIMPLE_JSON_BUILDER</title>
<path fill="none" stroke="black" d="M228.62,-1554.5C228.62,-1554.5 83.62,-1554.5 83.62,-1554.5 77.62,-1554.5 71.62,-1548.5 71.62,-1542.5 71.62,-1542.5 71.62,-1530.5 71.62,-1530.5 71.62,-1524.5 77.62,-1518.5 83.62,-1518.5 83.62,-1518.5 228.62,-1518.5 228.62,-1518.5 234.62,-1518.5 240.62,-1524.5 240.62,-1530.5 240.62,-1530.5 240.62,-1542.5 240.62,-1542.5 240.62,-1548.5 234.62,-1554.5 228.62,-1554.5"/>
<text xml:space="preserve" text-anchor="middle" x="156.12" y="-1531.45" font-family="Times New Roman,serif" font-size="14.00">SIMPLE_JSON_BUILDER</text>
</g>
<!-- SIMPLE_JSON_QUICK -->
<g id="node30" class="node">
<title>SIMPLE_JSON_QUICK</title>
<path fill="none" stroke="black" d="M220.75,-1626.5C220.75,-1626.5 91.5,-1626.5 91.5,-1626.5 85.5,-1626.5 79.5,-1620.5 79.5,-1614.5 79.5,-1614.5 79.5,-1602.5 79.5,-1602.5 79.5,-1596.5 85.5,-1590.5 91.5,-1590.5 91.5,-1590.5 220.75,-1590.5 220.75,-1590.5 226.75,-1590.5 232.75,-1596.5 232.75,-1602.5 232.75,-1602.5 232.75,-1614.5 232.75,-1614.5 232.75,-1620.5 226.75,-1626.5 220.75,-1626.5"/>
<text xml:space="preserve" text-anchor="middle" x="156.12" y="-1603.45" font-family="Times New Roman,serif" font-size="14.00">SIMPLE_JSON_QUICK</text>
</g>
<!-- SIMPLE_JSON_STREAM -->
<g id="node31" class="node">
<title>SIMPLE_JSON_STREAM</title>
<path fill="none" stroke="black" d="M616.25,-132.5C616.25,-132.5 474.25,-132.5 474.25,-132.5 468.25,-132.5 462.25,-126.5 462.25,-120.5 462.25,-120.5 462.25,-108.5 462.25,-108.5 462.25,-102.5 468.25,-96.5 474.25,-96.5 474.25,-96.5 616.25,-96.5 616.25,-96.5 622.25,-96.5 628.25,-102.5 628.25,-108.5 628.25,-108.5 628.25,-120.5 628.25,-120.5 628.25,-126.5 622.25,-132.5 616.25,-132.5"/>
<text xml:space="preserve" text-anchor="middle" x="545.25" y="-109.45" font-family="Times New Roman,serif" font-size="14.00">SIMPLE_JSON_STREAM</text>
</g>
<!-- SIMPLE_JSON_STREAM&#45;&gt;SIMPLE_JSON_CONSTANTS -->
<g id="edge21" class="edge">
<title>SIMPLE_JSON_STREAM&#45;&gt;SIMPLE_JSON_CONSTANTS</title>
<path fill="none" stroke="black" d="M628.52,-123.5C702.34,-123.5 798.5,-123.5 798.5,-123.5 798.5,-123.5 798.5,-228.5 798.5,-228.5"/>
<polygon fill="none" stroke="black" points="795,-228.5 798.5,-238.5 802,-228.5 795,-228.5"/>
</g>
<!-- SIMPLE_JSON_STREAM&#45;&gt;NONE -->
<g id="edge22" class="edge">
<title>SIMPLE_JSON_STREAM&#45;&gt;NONE</title>
<path fill="none" stroke="black" d="M628.58,-114.5C711.19,-114.5 825.5,-114.5 825.5,-114.5 825.5,-114.5 825.5,-173 825.5,-173 825.5,-173 834.08,-173 834.08,-173"/>
<polygon fill="none" stroke="black" points="834.08,-176.5 844.08,-173 834.08,-169.5 834.08,-176.5"/>
</g>
<!-- ITERABLE -->
<g id="node32" class="node">
<title>ITERABLE</title>
<path fill="none" stroke="black" d="M901.5,-132.5C901.5,-132.5 844.25,-132.5 844.25,-132.5 838.25,-132.5 832.25,-126.5 832.25,-120.5 832.25,-120.5 832.25,-108.5 832.25,-108.5 832.25,-102.5 838.25,-96.5 844.25,-96.5 844.25,-96.5 901.5,-96.5 901.5,-96.5 907.5,-96.5 913.5,-102.5 913.5,-108.5 913.5,-108.5 913.5,-120.5 913.5,-120.5 913.5,-126.5 907.5,-132.5 901.5,-132.5"/>
<text xml:space="preserve" text-anchor="middle" x="872.88" y="-109.45" font-family="Times New Roman,serif" font-size="14.00">ITERABLE</text>
</g>
<!-- SIMPLE_JSON_STREAM&#45;&gt;ITERABLE -->
<g id="edge20" class="edge">
<title>SIMPLE_JSON_STREAM&#45;&gt;ITERABLE</title>
<path fill="none" stroke="black" d="M628.35,-105.5C628.35,-105.5 820.28,-105.5 820.28,-105.5"/>
<polygon fill="none" stroke="black" points="820.28,-109 830.28,-105.5 820.28,-102 820.28,-109"/>
</g>
<!-- SIMPLE_JSON_STREAM_CURSOR -->
<g id="node33" class="node">
<title>SIMPLE_JSON_STREAM_CURSOR</title>
<path fill="none" stroke="black" d="M257.5,-1698.5C257.5,-1698.5 54.75,-1698.5 54.75,-1698.5 48.75,-1698.5 42.75,-1692.5 42.75,-1686.5 42.75,-1686.5 42.75,-1674.5 42.75,-1674.5 42.75,-1668.5 48.75,-1662.5 54.75,-1662.5 54.75,-1662.5 257.5,-1662.5 257.5,-1662.5 263.5,-1662.5 269.5,-1668.5 269.5,-1674.5 269.5,-1674.5 269.5,-1686.5 269.5,-1686.5 269.5,-1692.5 263.5,-1698.5 257.5,-1698.5"/>
<text xml:space="preserve" text-anchor="middle" x="156.12" y="-1675.45" font-family="Times New Roman,serif" font-size="14.00">SIMPLE_JSON_STREAM_CURSOR</text>
</g>
<!-- ITERATION_CURSOR -->
<g id="node34" class="node">
<title>ITERATION_CURSOR</title>
<path fill="none" stroke="black" d="M606.88,-1698.5C606.88,-1698.5 483.62,-1698.5 483.62,-1698.5 477.62,-1698.5 471.62,-1692.5 471.62,-1686.5 471.62,-1686.5 471.62,-1674.5 471.62,-1674.5 471.62,-1668.5 477.62,-1662.5 483.62,-1662.5 483.62,-1662.5 606.88,-1662.5 606.88,-1662.5 612.88,-1662.5 618.88,-1668.5 618.88,-1674.5 618.88,-1674.5 618.88,-1686.5 618.88,-1686.5 618.88,-1692.5 612.88,-1698.5 606.88,-1698.5"/>
<text xml:space="preserve" text-anchor="middle" x="545.25" y="-1675.45" font-family="Times New Roman,serif" font-size="14.00">ITERATION_CURSOR</text>
</g>
<!-- SIMPLE_JSON_STREAM_CURSOR&#45;&gt;ITERATION_CURSOR -->
<g id="edge23" class="edge">
<title>SIMPLE_JSON_STREAM_CURSOR&#45;&gt;ITERATION_CURSOR</title>
<path fill="none" stroke="black" d="M269.98,-1680.5C269.98,-1680.5 459.75,-1680.5 459.75,-1680.5"/>
<polygon fill="none" stroke="black" points="459.75,-1684 469.75,-1680.5 459.75,-1677 459.75,-1684"/>
</g>
<!-- SIMPLE_JSON_STREAM_ELEMENT -->
<g id="node35" class="node">
<title>SIMPLE_JSON_STREAM_ELEMENT</title>
<path fill="none" stroke="black" d="M262.38,-1770.5C262.38,-1770.5 49.88,-1770.5 49.88,-1770.5 43.88,-1770.5 37.88,-1764.5 37.88,-1758.5 37.88,-1758.5 37.88,-1746.5 37.88,-1746.5 37.88,-1740.5 43.88,-1734.5 49.88,-1734.5 49.88,-1734.5 262.38,-1734.5 262.38,-1734.5 268.38,-1734.5 274.38,-1740.5 274.38,-1746.5 274.38,-1746.5 274.38,-1758.5 274.38,-1758.5 274.38,-1764.5 268.38,-1770.5 262.38,-1770.5"/>
<text xml:space="preserve" text-anchor="middle" x="156.12" y="-1747.45" font-family="Times New Roman,serif" font-size="14.00">SIMPLE_JSON_STREAM_ELEMENT</text>
</g>
<!-- SIMPLE_JSON_PRETTY_PRINTER -->
<g id="node36" class="node">
<title>SIMPLE_JSON_PRETTY_PRINTER</title>
<path fill="none" stroke="black" d="M645.5,-60.5C645.5,-60.5 445,-60.5 445,-60.5 439,-60.5 433,-54.5 433,-48.5 433,-48.5 433,-36.5 433,-36.5 433,-30.5 439,-24.5 445,-24.5 445,-24.5 645.5,-24.5 645.5,-24.5 651.5,-24.5 657.5,-30.5 657.5,-36.5 657.5,-36.5 657.5,-48.5 657.5,-48.5 657.5,-54.5 651.5,-60.5 645.5,-60.5"/>
<text xml:space="preserve" text-anchor="middle" x="545.25" y="-37.45" font-family="Times New Roman,serif" font-size="14.00">SIMPLE_JSON_PRETTY_PRINTER</text>
</g>
<!-- SIMPLE_JSON_PRETTY_PRINTER&#45;&gt;SIMPLE_JSON_CONSTANTS -->
<g id="edge25" class="edge">
<title>SIMPLE_JSON_PRETTY_PRINTER&#45;&gt;SIMPLE_JSON_CONSTANTS</title>
<path fill="none" stroke="black" d="M657.66,-42.5C729.21,-42.5 808.5,-42.5 808.5,-42.5 808.5,-42.5 808.5,-228.57 808.5,-228.57"/>
<polygon fill="none" stroke="black" points="805,-228.57 808.5,-238.57 812,-228.57 805,-228.57"/>
</g>
<!-- SIMPLE_JSON_PRETTY_PRINTER&#45;&gt;NONE -->
<g id="edge26" class="edge">
<title>SIMPLE_JSON_PRETTY_PRINTER&#45;&gt;NONE</title>
<path fill="none" stroke="black" d="M657.95,-51.5C677.4,-51.5 691.5,-51.5 691.5,-51.5 691.5,-51.5 691.5,-177.5 691.5,-177.5 691.5,-177.5 834.21,-177.5 834.21,-177.5"/>
<polygon fill="none" stroke="black" points="834.21,-181 844.21,-177.5 834.21,-174 834.21,-181"/>
</g>
<!-- JSON_VISITOR -->
<g id="node37" class="node">
<title>JSON_VISITOR</title>
<path fill="none" stroke="black" d="M915,-60.5C915,-60.5 830.75,-60.5 830.75,-60.5 824.75,-60.5 818.75,-54.5 818.75,-48.5 818.75,-48.5 818.75,-36.5 818.75,-36.5 818.75,-30.5 824.75,-24.5 830.75,-24.5 830.75,-24.5 915,-24.5 915,-24.5 921,-24.5 927,-30.5 927,-36.5 927,-36.5 927,-48.5 927,-48.5 927,-54.5 921,-60.5 915,-60.5"/>
<text xml:space="preserve" text-anchor="middle" x="872.88" y="-37.45" font-family="Times New Roman,serif" font-size="14.00">JSON_VISITOR</text>
</g>
<!-- SIMPLE_JSON_PRETTY_PRINTER&#45;&gt;JSON_VISITOR -->
<g id="edge24" class="edge">
<title>SIMPLE_JSON_PRETTY_PRINTER&#45;&gt;JSON_VISITOR</title>
<path fill="none" stroke="black" d="M658,-33.5C658,-33.5 806.82,-33.5 806.82,-33.5"/>
<polygon fill="none" stroke="black" points="806.82,-37 816.82,-33.5 806.82,-30 806.82,-37"/>
</g>
<!-- ADVERSARIAL_TESTS -->
<g id="node38" class="node">
<title>ADVERSARIAL_TESTS</title>
<path fill="none" stroke="black" d="M223,-2922.5C223,-2922.5 89.25,-2922.5 89.25,-2922.5 83.25,-2922.5 77.25,-2916.5 77.25,-2910.5 77.25,-2910.5 77.25,-2898.5 77.25,-2898.5 77.25,-2892.5 83.25,-2886.5 89.25,-2886.5 89.25,-2886.5 223,-2886.5 223,-2886.5 229,-2886.5 235,-2892.5 235,-2898.5 235,-2898.5 235,-2910.5 235,-2910.5 235,-2916.5 229,-2922.5 223,-2922.5"/>
<text xml:space="preserve" text-anchor="middle" x="156.12" y="-2899.45" font-family="Times New Roman,serif" font-size="14.00">ADVERSARIAL_TESTS</text>
</g>
<!-- TEST_SET_BASE -->
<g id="node39" class="node">
<title>TEST_SET_BASE</title>
<path fill="none" stroke="black" d="M593.38,-2382.5C593.38,-2382.5 497.12,-2382.5 497.12,-2382.5 491.12,-2382.5 485.12,-2376.5 485.12,-2370.5 485.12,-2370.5 485.12,-2358.5 485.12,-2358.5 485.12,-2352.5 491.12,-2346.5 497.12,-2346.5 497.12,-2346.5 593.38,-2346.5 593.38,-2346.5 599.38,-2346.5 605.38,-2352.5 605.38,-2358.5 605.38,-2358.5 605.38,-2370.5 605.38,-2370.5 605.38,-2376.5 599.38,-2382.5 593.38,-2382.5"/>
<text xml:space="preserve" text-anchor="middle" x="545.25" y="-2359.45" font-family="Times New Roman,serif" font-size="14.00">TEST_SET_BASE</text>
</g>
<!-- ADVERSARIAL_TESTS&#45;&gt;TEST_SET_BASE -->
<g id="edge27" class="edge">
<title>ADVERSARIAL_TESTS&#45;&gt;TEST_SET_BASE</title>
<path fill="none" stroke="black" d="M235.29,-2904.5C360.58,-2904.5 590.5,-2904.5 590.5,-2904.5 590.5,-2904.5 590.5,-2394.29 590.5,-2394.29"/>
<polygon fill="none" stroke="black" points="594,-2394.29 590.5,-2384.29 587,-2394.29 594,-2394.29"/>
</g>
<!-- LIB_TESTS -->
<g id="node40" class="node">
<title>LIB_TESTS</title>
<path fill="none" stroke="black" d="M186.25,-2850.5C186.25,-2850.5 126,-2850.5 126,-2850.5 120,-2850.5 114,-2844.5 114,-2838.5 114,-2838.5 114,-2826.5 114,-2826.5 114,-2820.5 120,-2814.5 126,-2814.5 126,-2814.5 186.25,-2814.5 186.25,-2814.5 192.25,-2814.5 198.25,-2820.5 198.25,-2826.5 198.25,-2826.5 198.25,-2838.5 198.25,-2838.5 198.25,-2844.5 192.25,-2850.5 186.25,-2850.5"/>
<text xml:space="preserve" text-anchor="middle" x="156.12" y="-2827.45" font-family="Times New Roman,serif" font-size="14.00">LIB_TESTS</text>
</g>
<!-- LIB_TESTS&#45;&gt;TEST_SET_BASE -->
<g id="edge28" class="edge">
<title>LIB_TESTS&#45;&gt;TEST_SET_BASE</title>
<path fill="none" stroke="black" d="M198.64,-2832.5C305.26,-2832.5 575.5,-2832.5 575.5,-2832.5 575.5,-2832.5 575.5,-2394.36 575.5,-2394.36"/>
<polygon fill="none" stroke="black" points="579,-2394.36 575.5,-2384.36 572,-2394.36 579,-2394.36"/>
</g>
<!-- STRESS_TESTS -->
<g id="node41" class="node">
<title>STRESS_TESTS</title>
<path fill="none" stroke="black" d="M199.38,-2778.5C199.38,-2778.5 112.88,-2778.5 112.88,-2778.5 106.88,-2778.5 100.88,-2772.5 100.88,-2766.5 100.88,-2766.5 100.88,-2754.5 100.88,-2754.5 100.88,-2748.5 106.88,-2742.5 112.88,-2742.5 112.88,-2742.5 199.38,-2742.5 199.38,-2742.5 205.38,-2742.5 211.38,-2748.5 211.38,-2754.5 211.38,-2754.5 211.38,-2766.5 211.38,-2766.5 211.38,-2772.5 205.38,-2778.5 199.38,-2778.5"/>
<text xml:space="preserve" text-anchor="middle" x="156.12" y="-2755.45" font-family="Times New Roman,serif" font-size="14.00">STRESS_TESTS</text>
</g>
<!-- STRESS_TESTS&#45;&gt;TEST_SET_BASE -->
<g id="edge29" class="edge">
<title>STRESS_TESTS&#45;&gt;TEST_SET_BASE</title>
<path fill="none" stroke="black" d="M211.5,-2760.5C322.25,-2760.5 560.5,-2760.5 560.5,-2760.5 560.5,-2760.5 560.5,-2394.32 560.5,-2394.32"/>
<polygon fill="none" stroke="black" points="564,-2394.32 560.5,-2384.32 557,-2394.32 564,-2394.32"/>
</g>
<!-- TEST_APP -->
<g id="node42" class="node">
<title>TEST_APP</title>
<path fill="none" stroke="black" d="M184,-2994.5C184,-2994.5 128.25,-2994.5 128.25,-2994.5 122.25,-2994.5 116.25,-2988.5 116.25,-2982.5 116.25,-2982.5 116.25,-2970.5 116.25,-2970.5 116.25,-2964.5 122.25,-2958.5 128.25,-2958.5 128.25,-2958.5 184,-2958.5 184,-2958.5 190,-2958.5 196,-2964.5 196,-2970.5 196,-2970.5 196,-2982.5 196,-2982.5 196,-2988.5 190,-2994.5 184,-2994.5"/>
<text xml:space="preserve" text-anchor="middle" x="156.12" y="-2971.45" font-family="Times New Roman,serif" font-size="14.00">TEST_APP</text>
</g>
<!-- TEST_ASSERTIONS_DEMO -->
<g id="node43" class="node">
<title>TEST_ASSERTIONS_DEMO</title>
<path fill="none" stroke="black" d="M235.75,-2706.5C235.75,-2706.5 76.5,-2706.5 76.5,-2706.5 70.5,-2706.5 64.5,-2700.5 64.5,-2694.5 64.5,-2694.5 64.5,-2682.5 64.5,-2682.5 64.5,-2676.5 70.5,-2670.5 76.5,-2670.5 76.5,-2670.5 235.75,-2670.5 235.75,-2670.5 241.75,-2670.5 247.75,-2676.5 247.75,-2682.5 247.75,-2682.5 247.75,-2694.5 247.75,-2694.5 247.75,-2700.5 241.75,-2706.5 235.75,-2706.5"/>
<text xml:space="preserve" text-anchor="middle" x="156.12" y="-2683.45" font-family="Times New Roman,serif" font-size="14.00">TEST_ASSERTIONS_DEMO</text>
</g>
<!-- TEST_ASSERTIONS_DEMO&#45;&gt;TEST_SET_BASE -->
<g id="edge30" class="edge">
<title>TEST_ASSERTIONS_DEMO&#45;&gt;TEST_SET_BASE</title>
<path fill="none" stroke="black" d="M247.91,-2688.5C363.02,-2688.5 545.5,-2688.5 545.5,-2688.5 545.5,-2688.5 545.5,-2394.36 545.5,-2394.36"/>
<polygon fill="none" stroke="black" points="549,-2394.36 545.5,-2384.36 542,-2394.36 549,-2394.36"/>
</g>
<!-- TEST_DECIMAL_SUPPORT -->
<g id="node44" class="node">
<title>TEST_DECIMAL_SUPPORT</title>
<path fill="none" stroke="black" d="M235.38,-2634.5C235.38,-2634.5 76.88,-2634.5 76.88,-2634.5 70.88,-2634.5 64.88,-2628.5 64.88,-2622.5 64.88,-2622.5 64.88,-2610.5 64.88,-2610.5 64.88,-2604.5 70.88,-2598.5 76.88,-2598.5 76.88,-2598.5 235.38,-2598.5 235.38,-2598.5 241.38,-2598.5 247.38,-2604.5 247.38,-2610.5 247.38,-2610.5 247.38,-2622.5 247.38,-2622.5 247.38,-2628.5 241.38,-2634.5 235.38,-2634.5"/>
<text xml:space="preserve" text-anchor="middle" x="156.12" y="-2611.45" font-family="Times New Roman,serif" font-size="14.00">TEST_DECIMAL_SUPPORT</text>
</g>
<!-- TEST_DECIMAL_SUPPORT&#45;&gt;TEST_SET_BASE -->
<g id="edge31" class="edge">
<title>TEST_DECIMAL_SUPPORT&#45;&gt;TEST_SET_BASE</title>
<path fill="none" stroke="black" d="M247.71,-2616.5C358.54,-2616.5 530.5,-2616.5 530.5,-2616.5 530.5,-2616.5 530.5,-2394.14 530.5,-2394.14"/>
<polygon fill="none" stroke="black" points="534,-2394.14 530.5,-2384.14 527,-2394.14 534,-2394.14"/>
</g>
<!-- TEST_ERROR_TRACKING -->
<g id="node45" class="node">
<title>TEST_ERROR_TRACKING</title>
<path fill="none" stroke="black" d="M232.38,-2562.5C232.38,-2562.5 79.88,-2562.5 79.88,-2562.5 73.88,-2562.5 67.88,-2556.5 67.88,-2550.5 67.88,-2550.5 67.88,-2538.5 67.88,-2538.5 67.88,-2532.5 73.88,-2526.5 79.88,-2526.5 79.88,-2526.5 232.38,-2526.5 232.38,-2526.5 238.38,-2526.5 244.38,-2532.5 244.38,-2538.5 244.38,-2538.5 244.38,-2550.5 244.38,-2550.5 244.38,-2556.5 238.38,-2562.5 232.38,-2562.5"/>
<text xml:space="preserve" text-anchor="middle" x="156.12" y="-2539.45" font-family="Times New Roman,serif" font-size="14.00">TEST_ERROR_TRACKING</text>
</g>
<!-- TEST_ERROR_TRACKING&#45;&gt;TEST_SET_BASE -->
<g id="edge32" class="edge">
<title>TEST_ERROR_TRACKING&#45;&gt;TEST_SET_BASE</title>
<path fill="none" stroke="black" d="M244.5,-2544.5C350.91,-2544.5 515.5,-2544.5 515.5,-2544.5 515.5,-2544.5 515.5,-2394.26 515.5,-2394.26"/>
<polygon fill="none" stroke="black" points="519,-2394.26 515.5,-2384.26 512,-2394.26 519,-2394.26"/>
</g>
<!-- TEST_ERROR_TRACKING_ADVANCED -->
<g id="node46" class="node">
<title>TEST_ERROR_TRACKING_ADVANCED</title>
<path fill="none" stroke="black" d="M272.88,-2490.5C272.88,-2490.5 39.38,-2490.5 39.38,-2490.5 33.38,-2490.5 27.38,-2484.5 27.38,-2478.5 27.38,-2478.5 27.38,-2466.5 27.38,-2466.5 27.38,-2460.5 33.38,-2454.5 39.38,-2454.5 39.38,-2454.5 272.88,-2454.5 272.88,-2454.5 278.88,-2454.5 284.88,-2460.5 284.88,-2466.5 284.88,-2466.5 284.88,-2478.5 284.88,-2478.5 284.88,-2484.5 278.88,-2490.5 272.88,-2490.5"/>
<text xml:space="preserve" text-anchor="middle" x="156.12" y="-2467.45" font-family="Times New Roman,serif" font-size="14.00">TEST_ERROR_TRACKING_ADVANCED</text>
</g>
<!-- TEST_ERROR_TRACKING_ADVANCED&#45;&gt;TEST_SET_BASE -->
<g id="edge33" class="edge">
<title>TEST_ERROR_TRACKING_ADVANCED&#45;&gt;TEST_SET_BASE</title>
<path fill="none" stroke="black" d="M267.5,-2454.26C267.5,-2424.93 267.5,-2370.5 267.5,-2370.5 267.5,-2370.5 473.13,-2370.5 473.13,-2370.5"/>
<polygon fill="none" stroke="black" points="473.13,-2374 483.13,-2370.5 473.13,-2367 473.13,-2374"/>
</g>
<!-- TEST_JSON_PATH_QUERIES -->
<g id="node47" class="node">
<title>TEST_JSON_PATH_QUERIES</title>
<path fill="none" stroke="black" d="M239.5,-2418.5C239.5,-2418.5 72.75,-2418.5 72.75,-2418.5 66.75,-2418.5 60.75,-2412.5 60.75,-2406.5 60.75,-2406.5 60.75,-2394.5 60.75,-2394.5 60.75,-2388.5 66.75,-2382.5 72.75,-2382.5 72.75,-2382.5 239.5,-2382.5 239.5,-2382.5 245.5,-2382.5 251.5,-2388.5 251.5,-2394.5 251.5,-2394.5 251.5,-2406.5 251.5,-2406.5 251.5,-2412.5 245.5,-2418.5 239.5,-2418.5"/>
<text xml:space="preserve" text-anchor="middle" x="156.12" y="-2395.45" font-family="Times New Roman,serif" font-size="14.00">TEST_JSON_PATH_QUERIES</text>
</g>
<!-- TEST_JSON_PATH_QUERIES&#45;&gt;TEST_SET_BASE -->
<g id="edge34" class="edge">
<title>TEST_JSON_PATH_QUERIES&#45;&gt;TEST_SET_BASE</title>
<path fill="none" stroke="black" d="M251.6,-2400.5C353.51,-2400.5 500.5,-2400.5 500.5,-2400.5 500.5,-2400.5 500.5,-2394.44 500.5,-2394.44"/>
<polygon fill="none" stroke="black" points="504,-2394.44 500.5,-2384.44 497,-2394.44 504,-2394.44"/>
</g>
<!-- TEST_JSON_SCHEMA_VALIDATION -->
<g id="node48" class="node">
<title>TEST_JSON_SCHEMA_VALIDATION</title>
<path fill="none" stroke="black" d="M263.5,-2346.5C263.5,-2346.5 48.75,-2346.5 48.75,-2346.5 42.75,-2346.5 36.75,-2340.5 36.75,-2334.5 36.75,-2334.5 36.75,-2322.5 36.75,-2322.5 36.75,-2316.5 42.75,-2310.5 48.75,-2310.5 48.75,-2310.5 263.5,-2310.5 263.5,-2310.5 269.5,-2310.5 275.5,-2316.5 275.5,-2322.5 275.5,-2322.5 275.5,-2334.5 275.5,-2334.5 275.5,-2340.5 269.5,-2346.5 263.5,-2346.5"/>
<text xml:space="preserve" text-anchor="middle" x="156.12" y="-2323.45" font-family="Times New Roman,serif" font-size="14.00">TEST_JSON_SCHEMA_VALIDATION</text>
</g>
<!-- TEST_JSON_SCHEMA_VALIDATION&#45;&gt;TEST_SET_BASE -->
<g id="edge35" class="edge">
<title>TEST_JSON_SCHEMA_VALIDATION&#45;&gt;TEST_SET_BASE</title>
<path fill="none" stroke="black" d="M259.5,-2346.99C259.5,-2353.16 259.5,-2358.5 259.5,-2358.5 259.5,-2358.5 473.14,-2358.5 473.14,-2358.5"/>
<polygon fill="none" stroke="black" points="473.14,-2362 483.14,-2358.5 473.14,-2355 473.14,-2362"/>
</g>
<!-- TEST_JSON_SERIALIZER -->
<g id="node49" class="node">
<title>TEST_JSON_SERIALIZER</title>
<path fill="none" stroke="black" d="M229.75,-2274.5C229.75,-2274.5 82.5,-2274.5 82.5,-2274.5 76.5,-2274.5 70.5,-2268.5 70.5,-2262.5 70.5,-2262.5 70.5,-2250.5 70.5,-2250.5 70.5,-2244.5 76.5,-2238.5 82.5,-2238.5 82.5,-2238.5 229.75,-2238.5 229.75,-2238.5 235.75,-2238.5 241.75,-2244.5 241.75,-2250.5 241.75,-2250.5 241.75,-2262.5 241.75,-2262.5 241.75,-2268.5 235.75,-2274.5 229.75,-2274.5"/>
<text xml:space="preserve" text-anchor="middle" x="156.12" y="-2251.45" font-family="Times New Roman,serif" font-size="14.00">TEST_JSON_SERIALIZER</text>
</g>
<!-- TEST_JSON_SERIALIZER&#45;&gt;TEST_SET_BASE -->
<g id="edge36" class="edge">
<title>TEST_JSON_SERIALIZER&#45;&gt;TEST_SET_BASE</title>
<path fill="none" stroke="black" d="M242.14,-2256.5C344.14,-2256.5 500.5,-2256.5 500.5,-2256.5 500.5,-2256.5 500.5,-2334.67 500.5,-2334.67"/>
<polygon fill="none" stroke="black" points="497,-2334.67 500.5,-2344.67 504,-2334.67 497,-2334.67"/>
</g>
<!-- TEST_PRETTY_PRINTING -->
<g id="node50" class="node">
<title>TEST_PRETTY_PRINTING</title>
<path fill="none" stroke="black" d="M232,-2202.5C232,-2202.5 80.25,-2202.5 80.25,-2202.5 74.25,-2202.5 68.25,-2196.5 68.25,-2190.5 68.25,-2190.5 68.25,-2178.5 68.25,-2178.5 68.25,-2172.5 74.25,-2166.5 80.25,-2166.5 80.25,-2166.5 232,-2166.5 232,-2166.5 238,-2166.5 244,-2172.5 244,-2178.5 244,-2178.5 244,-2190.5 244,-2190.5 244,-2196.5 238,-2202.5 232,-2202.5"/>
<text xml:space="preserve" text-anchor="middle" x="156.12" y="-2179.45" font-family="Times New Roman,serif" font-size="14.00">TEST_PRETTY_PRINTING</text>
</g>
<!-- TEST_PRETTY_PRINTING&#45;&gt;TEST_SET_BASE -->
<g id="edge37" class="edge">
<title>TEST_PRETTY_PRINTING&#45;&gt;TEST_SET_BASE</title>
<path fill="none" stroke="black" d="M244.5,-2184.5C350.91,-2184.5 515.5,-2184.5 515.5,-2184.5 515.5,-2184.5 515.5,-2334.74 515.5,-2334.74"/>
<polygon fill="none" stroke="black" points="512,-2334.74 515.5,-2344.74 519,-2334.74 512,-2334.74"/>
</g>
<!-- TEST_SERIALIZER_ADDRESS -->
<g id="node51" class="node">
<title>TEST_SERIALIZER_ADDRESS</title>
<path fill="none" stroke="black" d="M244.38,-3066.5C244.38,-3066.5 67.88,-3066.5 67.88,-3066.5 61.88,-3066.5 55.88,-3060.5 55.88,-3054.5 55.88,-3054.5 55.88,-3042.5 55.88,-3042.5 55.88,-3036.5 61.88,-3030.5 67.88,-3030.5 67.88,-3030.5 244.38,-3030.5 244.38,-3030.5 250.38,-3030.5 256.38,-3036.5 256.38,-3042.5 256.38,-3042.5 256.38,-3054.5 256.38,-3054.5 256.38,-3060.5 250.38,-3066.5 244.38,-3066.5"/>
<text xml:space="preserve" text-anchor="middle" x="156.12" y="-3043.45" font-family="Times New Roman,serif" font-size="14.00">TEST_SERIALIZER_ADDRESS</text>
</g>
<!-- TEST_SERIALIZER_EMPTY -->
<g id="node52" class="node">
<title>TEST_SERIALIZER_EMPTY</title>
<path fill="none" stroke="black" d="M236.88,-3138.5C236.88,-3138.5 75.38,-3138.5 75.38,-3138.5 69.38,-3138.5 63.38,-3132.5 63.38,-3126.5 63.38,-3126.5 63.38,-3114.5 63.38,-3114.5 63.38,-3108.5 69.38,-3102.5 75.38,-3102.5 75.38,-3102.5 236.88,-3102.5 236.88,-3102.5 242.88,-3102.5 248.88,-3108.5 248.88,-3114.5 248.88,-3114.5 248.88,-3126.5 248.88,-3126.5 248.88,-3132.5 242.88,-3138.5 236.88,-3138.5"/>
<text xml:space="preserve" text-anchor="middle" x="156.12" y="-3115.45" font-family="Times New Roman,serif" font-size="14.00">TEST_SERIALIZER_EMPTY</text>
</g>
<!-- TEST_SERIALIZER_PARENT_WITH_CHILDREN -->
<g id="node53" class="node">
<title>TEST_SERIALIZER_PARENT_WITH_CHILDREN</title>
<path fill="none" stroke="black" d="M298.38,-3210.5C298.38,-3210.5 13.88,-3210.5 13.88,-3210.5 7.88,-3210.5 1.88,-3204.5 1.88,-3198.5 1.88,-3198.5 1.88,-3186.5 1.88,-3186.5 1.88,-3180.5 7.88,-3174.5 13.88,-3174.5 13.88,-3174.5 298.38,-3174.5 298.38,-3174.5 304.38,-3174.5 310.38,-3180.5 310.38,-3186.5 310.38,-3186.5 310.38,-3198.5 310.38,-3198.5 310.38,-3204.5 304.38,-3210.5 298.38,-3210.5"/>
<text xml:space="preserve" text-anchor="middle" x="156.12" y="-3187.45" font-family="Times New Roman,serif" font-size="14.00">TEST_SERIALIZER_PARENT_WITH_CHILDREN</text>
</g>
<!-- TEST_SERIALIZER_PERSON -->
<g id="node54" class="node">
<title>TEST_SERIALIZER_PERSON</title>
<path fill="none" stroke="black" d="M239.5,-3282.5C239.5,-3282.5 72.75,-3282.5 72.75,-3282.5 66.75,-3282.5 60.75,-3276.5 60.75,-3270.5 60.75,-3270.5 60.75,-3258.5 60.75,-3258.5 60.75,-3252.5 66.75,-3246.5 72.75,-3246.5 72.75,-3246.5 239.5,-3246.5 239.5,-3246.5 245.5,-3246.5 251.5,-3252.5 251.5,-3258.5 251.5,-3258.5 251.5,-3270.5 251.5,-3270.5 251.5,-3276.5 245.5,-3282.5 239.5,-3282.5"/>
<text xml:space="preserve" text-anchor="middle" x="156.12" y="-3259.45" font-family="Times New Roman,serif" font-size="14.00">TEST_SERIALIZER_PERSON</text>
</g>
<!-- TEST_SIMPLE_JSON -->
<g id="node55" class="node">
<title>TEST_SIMPLE_JSON</title>
<path fill="none" stroke="black" d="M215.5,-2130.5C215.5,-2130.5 96.75,-2130.5 96.75,-2130.5 90.75,-2130.5 84.75,-2124.5 84.75,-2118.5 84.75,-2118.5 84.75,-2106.5 84.75,-2106.5 84.75,-2100.5 90.75,-2094.5 96.75,-2094.5 96.75,-2094.5 215.5,-2094.5 215.5,-2094.5 221.5,-2094.5 227.5,-2100.5 227.5,-2106.5 227.5,-2106.5 227.5,-2118.5 227.5,-2118.5 227.5,-2124.5 221.5,-2130.5 215.5,-2130.5"/>
<text xml:space="preserve" text-anchor="middle" x="156.12" y="-2107.45" font-family="Times New Roman,serif" font-size="14.00">TEST_SIMPLE_JSON</text>
</g>
<!-- TEST_SIMPLE_JSON&#45;&gt;TEST_SET_BASE -->
<g id="edge38" class="edge">
<title>TEST_SIMPLE_JSON&#45;&gt;TEST_SET_BASE</title>
<path fill="none" stroke="black" d="M227.87,-2112.5C336.57,-2112.5 530.5,-2112.5 530.5,-2112.5 530.5,-2112.5 530.5,-2334.86 530.5,-2334.86"/>
<polygon fill="none" stroke="black" points="527,-2334.86 530.5,-2344.86 534,-2334.86 527,-2334.86"/>
</g>
<!-- TEST_SIMPLE_JSON_MERGE_PATCH -->
<g id="node56" class="node">
<title>TEST_SIMPLE_JSON_MERGE_PATCH</title>
<path fill="none" stroke="black" d="M267.25,-2058.5C267.25,-2058.5 45,-2058.5 45,-2058.5 39,-2058.5 33,-2052.5 33,-2046.5 33,-2046.5 33,-2034.5 33,-2034.5 33,-2028.5 39,-2022.5 45,-2022.5 45,-2022.5 267.25,-2022.5 267.25,-2022.5 273.25,-2022.5 279.25,-2028.5 279.25,-2034.5 279.25,-2034.5 279.25,-2046.5 279.25,-2046.5 279.25,-2052.5 273.25,-2058.5 267.25,-2058.5"/>
<text xml:space="preserve" text-anchor="middle" x="156.12" y="-2035.45" font-family="Times New Roman,serif" font-size="14.00">TEST_SIMPLE_JSON_MERGE_PATCH</text>
</g>
<!-- TEST_SIMPLE_JSON_MERGE_PATCH&#45;&gt;TEST_SET_BASE -->
<g id="edge39" class="edge">
<title>TEST_SIMPLE_JSON_MERGE_PATCH&#45;&gt;TEST_SET_BASE</title>
<path fill="none" stroke="black" d="M279.59,-2040.5C393.64,-2040.5 545.5,-2040.5 545.5,-2040.5 545.5,-2040.5 545.5,-2334.64 545.5,-2334.64"/>
<polygon fill="none" stroke="black" points="542,-2334.64 545.5,-2344.64 549,-2334.64 542,-2334.64"/>
</g>
<!-- TEST_SIMPLE_JSON_PATCH -->
<g id="node57" class="node">
<title>TEST_SIMPLE_JSON_PATCH</title>
<path fill="none" stroke="black" d="M239.88,-1986.5C239.88,-1986.5 72.38,-1986.5 72.38,-1986.5 66.38,-1986.5 60.38,-1980.5 60.38,-1974.5 60.38,-1974.5 60.38,-1962.5 60.38,-1962.5 60.38,-1956.5 66.38,-1950.5 72.38,-1950.5 72.38,-1950.5 239.88,-1950.5 239.88,-1950.5 245.88,-1950.5 251.88,-1956.5 251.88,-1962.5 251.88,-1962.5 251.88,-1974.5 251.88,-1974.5 251.88,-1980.5 245.88,-1986.5 239.88,-1986.5"/>
<text xml:space="preserve" text-anchor="middle" x="156.12" y="-1963.45" font-family="Times New Roman,serif" font-size="14.00">TEST_SIMPLE_JSON_PATCH</text>
</g>
<!-- TEST_SIMPLE_JSON_PATCH&#45;&gt;TEST_SET_BASE -->
<g id="edge40" class="edge">
<title>TEST_SIMPLE_JSON_PATCH&#45;&gt;TEST_SET_BASE</title>
<path fill="none" stroke="black" d="M252.21,-1968.5C371.81,-1968.5 560.5,-1968.5 560.5,-1968.5 560.5,-1968.5 560.5,-2334.68 560.5,-2334.68"/>
<polygon fill="none" stroke="black" points="557,-2334.68 560.5,-2344.68 564,-2334.68 557,-2334.68"/>
</g>
<!-- TEST_SIMPLE_JSON_STREAM -->
<g id="node58" class="node">
<title>TEST_SIMPLE_JSON_STREAM</title>
<path fill="none" stroke="black" d="M246.62,-1914.5C246.62,-1914.5 65.62,-1914.5 65.62,-1914.5 59.62,-1914.5 53.62,-1908.5 53.62,-1902.5 53.62,-1902.5 53.62,-1890.5 53.62,-1890.5 53.62,-1884.5 59.62,-1878.5 65.62,-1878.5 65.62,-1878.5 246.62,-1878.5 246.62,-1878.5 252.62,-1878.5 258.62,-1884.5 258.62,-1890.5 258.62,-1890.5 258.62,-1902.5 258.62,-1902.5 258.62,-1908.5 252.62,-1914.5 246.62,-1914.5"/>
<text xml:space="preserve" text-anchor="middle" x="156.12" y="-1891.45" font-family="Times New Roman,serif" font-size="14.00">TEST_SIMPLE_JSON_STREAM</text>
</g>
<!-- TEST_SIMPLE_JSON_STREAM&#45;&gt;TEST_SET_BASE -->
<g id="edge41" class="edge">
<title>TEST_SIMPLE_JSON_STREAM&#45;&gt;TEST_SET_BASE</title>
<path fill="none" stroke="black" d="M258.98,-1896.5C383.15,-1896.5 575.5,-1896.5 575.5,-1896.5 575.5,-1896.5 575.5,-2334.64 575.5,-2334.64"/>
<polygon fill="none" stroke="black" points="572,-2334.64 575.5,-2344.64 579,-2334.64 572,-2334.64"/>
</g>
<!-- TEST_STRING_DIFF_DEMO -->
<g id="node59" class="node">
<title>TEST_STRING_DIFF_DEMO</title>
<path fill="none" stroke="black" d="M237.62,-1842.5C237.62,-1842.5 74.62,-1842.5 74.62,-1842.5 68.62,-1842.5 62.62,-1836.5 62.62,-1830.5 62.62,-1830.5 62.62,-1818.5 62.62,-1818.5 62.62,-1812.5 68.62,-1806.5 74.62,-1806.5 74.62,-1806.5 237.62,-1806.5 237.62,-1806.5 243.62,-1806.5 249.62,-1812.5 249.62,-1818.5 249.62,-1818.5 249.62,-1830.5 249.62,-1830.5 249.62,-1836.5 243.62,-1842.5 237.62,-1842.5"/>
<text xml:space="preserve" text-anchor="middle" x="156.12" y="-1819.45" font-family="Times New Roman,serif" font-size="14.00">TEST_STRING_DIFF_DEMO</text>
</g>
<!-- TEST_STRING_DIFF_DEMO&#45;&gt;TEST_SET_BASE -->
<g id="edge42" class="edge">
<title>TEST_STRING_DIFF_DEMO&#45;&gt;TEST_SET_BASE</title>
<path fill="none" stroke="black" d="M250.11,-1824.5C377.83,-1824.5 590.5,-1824.5 590.5,-1824.5 590.5,-1824.5 590.5,-2334.71 590.5,-2334.71"/>
<polygon fill="none" stroke="black" points="587,-2334.71 590.5,-2344.71 594,-2334.71 587,-2334.71"/>
</g>
<!-- BENCHMARK_APP -->
<g id="node60" class="node">
<title>BENCHMARK_APP</title>
<path fill="none" stroke="black" d="M211.38,-3354.5C211.38,-3354.5 100.88,-3354.5 100.88,-3354.5 94.88,-3354.5 88.88,-3348.5 88.88,-3342.5 88.88,-3342.5 88.88,-3330.5 88.88,-3330.5 88.88,-3324.5 94.88,-3318.5 100.88,-3318.5 100.88,-3318.5 211.38,-3318.5 211.38,-3318.5 217.38,-3318.5 223.38,-3324.5 223.38,-3330.5 223.38,-3330.5 223.38,-3342.5 223.38,-3342.5 223.38,-3348.5 217.38,-3354.5 211.38,-3354.5"/>
<text xml:space="preserve" text-anchor="middle" x="156.12" y="-3331.45" font-family="Times New Roman,serif" font-size="14.00">BENCHMARK_APP</text>
</g>
<!-- BENCHMARK_LOGGER -->
<g id="node61" class="node">
<title>BENCHMARK_LOGGER</title>
<path fill="none" stroke="black" d="M226.38,-3426.5C226.38,-3426.5 85.88,-3426.5 85.88,-3426.5 79.88,-3426.5 73.88,-3420.5 73.88,-3414.5 73.88,-3414.5 73.88,-3402.5 73.88,-3402.5 73.88,-3396.5 79.88,-3390.5 85.88,-3390.5 85.88,-3390.5 226.38,-3390.5 226.38,-3390.5 232.38,-3390.5 238.38,-3396.5 238.38,-3402.5 238.38,-3402.5 238.38,-3414.5 238.38,-3414.5 238.38,-3420.5 232.38,-3426.5 226.38,-3426.5"/>
<text xml:space="preserve" text-anchor="middle" x="156.12" y="-3403.45" font-family="Times New Roman,serif" font-size="14.00">BENCHMARK_LOGGER</text>
</g>
</g>
</svg>
