<?xml version="1.0" encoding="UTF-8" standalone="no"?>
<!DOCTYPE svg PUBLIC "-//W3C//DTD SVG 1.1//EN"
 "http://www.w3.org/Graphics/SVG/1.1/DTD/svg11.dtd">
<!-- Generated by graphviz version 14.1.1 (20251213.1925)
 -->
<!-- Title: Dependencies Pages: 1 -->
<svg width="345pt" height="861pt"
 viewBox="0.00 0.00 345.00 861.00" xmlns="http://www.w3.org/2000/svg" xmlns:xlink="http://www.w3.org/1999/xlink">
<g id="graph0" class="graph" transform="scale(1 1) rotate(0) translate(4 856.5)">
<title>Dependencies</title>
<polygon fill="white" stroke="none" points="-4,4 -4,-856.5 341.25,-856.5 341.25,4 -4,4"/>
<text xml:space="preserve" text-anchor="middle" x="168.62" y="-7.2" font-family="Times New Roman,serif" font-size="14.00">simple_json &#45; Dependencies</text>
<!-- simple_json -->
<g id="node1" class="node">
<title>simple_json</title>
<polygon fill="lightblue" stroke="black" points="82,-456.5 0,-456.5 0,-420.5 82,-420.5 82,-456.5"/>
<text xml:space="preserve" text-anchor="middle" x="41" y="-433.45" font-family="Times New Roman,serif" font-size="14.00">simple_json</text>
</g>
<!-- simple_datetime -->
<g id="node2" class="node">
<title>simple_datetime</title>
<polygon fill="lightblue" stroke="black" points="335,-852.5 228.25,-852.5 228.25,-816.5 335,-816.5 335,-852.5"/>
<text xml:space="preserve" text-anchor="middle" x="281.62" y="-829.45" font-family="Times New Roman,serif" font-size="14.00">simple_datetime</text>
</g>
<!-- simple_json&#45;&gt;simple_datetime -->
<g id="edge1" class="edge">
<title>simple_json&#45;&gt;simple_datetime</title>
<path fill="none" stroke="black" stroke-dasharray="5,2" d="M11.25,-456.81C11.25,-534.69 11.25,-834.5 11.25,-834.5 11.25,-834.5 216.37,-834.5 216.37,-834.5"/>
<polygon fill="black" stroke="black" points="216.37,-838 226.37,-834.5 216.37,-831 216.37,-838"/>
</g>
<!-- simple_decimal -->
<g id="node3" class="node">
<title>simple_decimal</title>
<polygon fill="lightblue" stroke="black" points="333.12,-780.5 230.12,-780.5 230.12,-744.5 333.12,-744.5 333.12,-780.5"/>
<text xml:space="preserve" text-anchor="middle" x="281.62" y="-757.45" font-family="Times New Roman,serif" font-size="14.00">simple_decimal</text>
</g>
<!-- simple_json&#45;&gt;simple_decimal -->
<g id="edge2" class="edge">
<title>simple_json&#45;&gt;simple_decimal</title>
<path fill="none" stroke="black" stroke-dasharray="5,2" d="M23.25,-456.85C23.25,-525.39 23.25,-762.5 23.25,-762.5 23.25,-762.5 218.14,-762.5 218.14,-762.5"/>
<polygon fill="black" stroke="black" points="218.14,-766 228.14,-762.5 218.14,-759 218.14,-766"/>
</g>
<!-- simple_zstring -->
<g id="node4" class="node">
<title>simple_zstring</title>
<polygon fill="lightblue" stroke="black" points="329.75,-708.5 233.5,-708.5 233.5,-672.5 329.75,-672.5 329.75,-708.5"/>
<text xml:space="preserve" text-anchor="middle" x="281.62" y="-685.45" font-family="Times New Roman,serif" font-size="14.00">simple_zstring</text>
</g>
<!-- simple_json&#45;&gt;simple_zstring -->
<g id="edge3" class="edge">
<title>simple_json&#45;&gt;simple_zstring</title>
<path fill="none" stroke="black" stroke-dasharray="5,2" d="M35.25,-456.62C35.25,-514.4 35.25,-690.5 35.25,-690.5 35.25,-690.5 221.73,-690.5 221.73,-690.5"/>
<polygon fill="black" stroke="black" points="221.73,-694 231.73,-690.5 221.73,-687 221.73,-694"/>
</g>
<!-- simple_reflection -->
<g id="node5" class="node">
<title>simple_reflection</title>
<polygon fill="lightblue" stroke="black" points="337.25,-636.5 226,-636.5 226,-600.5 337.25,-600.5 337.25,-636.5"/>
<text xml:space="preserve" text-anchor="middle" x="281.62" y="-613.45" font-family="Times New Roman,serif" font-size="14.00">simple_reflection</text>
</g>
<!-- simple_json&#45;&gt;simple_reflection -->
<g id="edge4" class="edge">
<title>simple_json&#45;&gt;simple_reflection</title>
<path fill="none" stroke="black" stroke-dasharray="5,2" d="M47.25,-456.75C47.25,-502.51 47.25,-618.5 47.25,-618.5 47.25,-618.5 214.27,-618.5 214.27,-618.5"/>
<polygon fill="black" stroke="black" points="214.27,-622 224.27,-618.5 214.27,-615 214.27,-622"/>
</g>
<!-- simple_encoding -->
<g id="node6" class="node">
<title>simple_encoding</title>
<polygon fill="lightblue" stroke="black" points="336.12,-564.5 227.12,-564.5 227.12,-528.5 336.12,-528.5 336.12,-564.5"/>
<text xml:space="preserve" text-anchor="middle" x="281.62" y="-541.45" font-family="Times New Roman,serif" font-size="14.00">simple_encoding</text>
</g>
<!-- simple_json&#45;&gt;simple_encoding -->
<g id="edge5" class="edge">
<title>simple_json&#45;&gt;simple_encoding</title>
<path fill="none" stroke="black" stroke-dasharray="5,2" d="M58.25,-456.82C58.25,-487.63 58.25,-546.5 58.25,-546.5 58.25,-546.5 215.18,-546.5 215.18,-546.5"/>
<polygon fill="black" stroke="black" points="215.18,-550 225.18,-546.5 215.18,-543 215.18,-550"/>
</g>
<!-- simple_mml -->
<g id="node7" class="node">
<title>simple_mml</title>
<polygon fill="lightblue" stroke="black" points="324.5,-492.5 238.75,-492.5 238.75,-456.5 324.5,-456.5 324.5,-492.5"/>
<text xml:space="preserve" text-anchor="middle" x="281.62" y="-469.45" font-family="Times New Roman,serif" font-size="14.00">simple_mml</text>
</g>
<!-- simple_json&#45;&gt;simple_mml -->
<g id="edge6" class="edge">
<title>simple_json&#45;&gt;simple_mml</title>
<path fill="none" stroke="black" stroke-dasharray="5,2" d="M70.25,-456.92C70.25,-465.78 70.25,-474.5 70.25,-474.5 70.25,-474.5 226.83,-474.5 226.83,-474.5"/>
<polygon fill="black" stroke="black" points="226.83,-478 236.83,-474.5 226.83,-471 226.83,-478"/>
</g>
<!-- simple_testing -->
<g id="node8" class="node">
<title>simple_testing</title>
<polygon fill="lightblue" stroke="black" points="329.38,-420.5 233.88,-420.5 233.88,-384.5 329.38,-384.5 329.38,-420.5"/>
<text xml:space="preserve" text-anchor="middle" x="281.62" y="-397.45" font-family="Times New Roman,serif" font-size="14.00">simple_testing</text>
</g>
<!-- simple_json&#45;&gt;simple_testing -->
<g id="edge7" class="edge">
<title>simple_json&#45;&gt;simple_testing</title>
<path fill="none" stroke="black" stroke-dasharray="5,2" d="M70.25,-420.08C70.25,-411.22 70.25,-402.5 70.25,-402.5 70.25,-402.5 221.88,-402.5 221.88,-402.5"/>
<polygon fill="black" stroke="black" points="221.88,-406 231.88,-402.5 221.88,-399 221.88,-406"/>
</g>
<!-- base -->
<g id="node9" class="node">
<title>base</title>
<polygon fill="lightgray" stroke="black" points="308.62,-348.5 254.62,-348.5 254.62,-312.5 308.62,-312.5 308.62,-348.5"/>
<text xml:space="preserve" text-anchor="middle" x="281.62" y="-325.45" font-family="Times New Roman,serif" font-size="14.00">base</text>
</g>
<!-- simple_json&#45;&gt;base -->
<g id="edge8" class="edge">
<title>simple_json&#45;&gt;base</title>
<path fill="none" stroke="black" stroke-dasharray="5,2" d="M58.25,-420.18C58.25,-389.37 58.25,-330.5 58.25,-330.5 58.25,-330.5 242.72,-330.5 242.72,-330.5"/>
<polygon fill="black" stroke="black" points="242.72,-334 252.72,-330.5 242.72,-327 242.72,-334"/>
</g>
<!-- json -->
<g id="node10" class="node">
<title>json</title>
<polygon fill="lightgray" stroke="black" points="308.62,-276.5 254.62,-276.5 254.62,-240.5 308.62,-240.5 308.62,-276.5"/>
<text xml:space="preserve" text-anchor="middle" x="281.62" y="-253.45" font-family="Times New Roman,serif" font-size="14.00">json</text>
</g>
<!-- simple_json&#45;&gt;json -->
<g id="edge9" class="edge">
<title>simple_json&#45;&gt;json</title>
<path fill="none" stroke="black" stroke-dasharray="5,2" d="M47.25,-420.25C47.25,-374.49 47.25,-258.5 47.25,-258.5 47.25,-258.5 242.77,-258.5 242.77,-258.5"/>
<polygon fill="black" stroke="black" points="242.77,-262 252.77,-258.5 242.77,-255 242.77,-262"/>
</g>
<!-- logging -->
<g id="node11" class="node">
<title>logging</title>
<polygon fill="lightgray" stroke="black" points="310.25,-204.5 253,-204.5 253,-168.5 310.25,-168.5 310.25,-204.5"/>
<text xml:space="preserve" text-anchor="middle" x="281.62" y="-181.45" font-family="Times New Roman,serif" font-size="14.00">logging</text>
</g>
<!-- simple_json&#45;&gt;logging -->
<g id="edge10" class="edge">
<title>simple_json&#45;&gt;logging</title>
<path fill="none" stroke="black" stroke-dasharray="5,2" d="M35.25,-420.38C35.25,-362.6 35.25,-186.5 35.25,-186.5 35.25,-186.5 241.37,-186.5 241.37,-186.5"/>
<polygon fill="black" stroke="black" points="241.37,-190 251.37,-186.5 241.37,-183 241.37,-190"/>
</g>
<!-- regexp -->
<g id="node12" class="node">
<title>regexp</title>
<polygon fill="lightgray" stroke="black" points="308.62,-132.5 254.62,-132.5 254.62,-96.5 308.62,-96.5 308.62,-132.5"/>
<text xml:space="preserve" text-anchor="middle" x="281.62" y="-109.45" font-family="Times New Roman,serif" font-size="14.00">regexp</text>
</g>
<!-- simple_json&#45;&gt;regexp -->
<g id="edge11" class="edge">
<title>simple_json&#45;&gt;regexp</title>
<path fill="none" stroke="black" stroke-dasharray="5,2" d="M23.25,-420.15C23.25,-351.61 23.25,-114.5 23.25,-114.5 23.25,-114.5 242.95,-114.5 242.95,-114.5"/>
<polygon fill="black" stroke="black" points="242.95,-118 252.95,-114.5 242.95,-111 242.95,-118"/>
</g>
<!-- testing -->
<g id="node13" class="node">
<title>testing</title>
<polygon fill="lightgray" stroke="black" points="308.62,-60.5 254.62,-60.5 254.62,-24.5 308.62,-24.5 308.62,-60.5"/>
<text xml:space="preserve" text-anchor="middle" x="281.62" y="-37.45" font-family="Times New Roman,serif" font-size="14.00">testing</text>
</g>
<!-- simple_json&#45;&gt;testing -->
<g id="edge12" class="edge">
<title>simple_json&#45;&gt;testing</title>
<path fill="none" stroke="black" stroke-dasharray="5,2" d="M11.25,-420.19C11.25,-342.31 11.25,-42.5 11.25,-42.5 11.25,-42.5 242.7,-42.5 242.7,-42.5"/>
<polygon fill="black" stroke="black" points="242.7,-46 252.7,-42.5 242.7,-39 242.7,-46"/>
</g>
</g>
</svg>
